<?xml version="1.0" encoding="UTF-8" standalone="no"?>
<!DOCTYPE svg PUBLIC "-//W3C//DTD SVG 1.1//EN" "http://www.w3.org/Graphics/SVG/1.1/DTD/svg11.dtd">
<svg version="1.1" xmlns="http://www.w3.org/2000/svg" xmlns:xlink="http://www.w3.org/1999/xlink" preserveAspectRatio="xMidYMid meet" viewBox="0 0 640 640" width="640" height="640"><defs><path d="M371.39 157.96L371.39 510.74L163.06 510.74L163.06 157.96L371.39 157.96Z" id="c51LPOr5Qz"></path><path d="M368.61 175.81L374.17 175.81L374.17 227.67L368.61 227.67L368.61 175.81Z" id="gwI1YXJNu"></path><path d="M368.61 230.81L374.17 230.81L374.17 282.67L368.61 282.67L368.61 230.81Z" id="b5XcHM3jd0"></path><path d="M371.39 302.76L254.53 302.76L254.53 297.43L254.53 283.65L312.31 283.65L312.31 297.43L371.39 297.43L371.39 302.76Z" id="i3U7H0rM2i"></path><path d="M371.39 385.43L220.75 385.43L220.75 393.43L371.39 393.43L371.39 385.43Z" id="b2BEHugZG5"></path><path d="M368.61 318.04L374.17 318.04L374.17 369.89L368.61 369.89L368.61 318.04Z" id="e3f3vyd1Oo"></path><path d="M238.87 507.96L238.87 513.52L187.02 513.52L187.02 507.96L238.87 507.96Z" id="ak2rCjNx4"></path><path d="M368.61 405.7L374.17 405.7L374.17 457.56L368.61 457.56L368.61 405.7Z" id="a2kThFNuR"></path><path d="M305.2 393.43L305.2 408.54L298.53 408.54L298.53 393.43L305.2 393.43Z" id="dhXxpLnpc"></path><path d="M305.2 431.63L305.2 510.74L298.53 510.74L298.53 431.63L305.2 431.63Z" id="d1iz9EHTz2"></path><path d="M323.83 290.45C323.83 293.1 321.68 295.25 319.03 295.25C316.38 295.25 314.23 293.1 314.23 290.45C314.23 287.8 316.38 285.65 319.03 285.65C321.68 285.65 323.83 287.8 323.83 290.45Z" id="a5lMkKNVx"></path><path d="M335.33 290.45C335.33 293.1 333.18 295.25 330.53 295.25C327.88 295.25 325.73 293.1 325.73 290.45C325.73 287.8 327.88 285.65 330.53 285.65C333.18 285.65 335.33 287.8 335.33 290.45Z" id="c4PrwEZJ99"></path><path d="M347.43 290.45C347.43 293.1 345.28 295.25 342.63 295.25C339.98 295.25 337.83 293.1 337.83 290.45C337.83 287.8 339.98 285.65 342.63 285.65C345.28 285.65 347.43 287.8 347.43 290.45Z" id="a4XB4ZSao6"></path><path d="M359.53 290.45C359.53 293.1 357.38 295.25 354.73 295.25C352.08 295.25 349.93 293.1 349.93 290.45C349.93 287.8 352.08 285.65 354.73 285.65C357.38 285.65 359.53 287.8 359.53 290.45Z" id="eoEJNfEVf"></path><path d="M347.43 171.01C347.43 173.66 345.28 175.81 342.63 175.81C339.98 175.81 337.83 173.66 337.83 171.01C337.83 168.36 339.98 166.21 342.63 166.21C345.28 166.21 347.43 168.36 347.43 171.01Z" id="e22ceeCA4R"></path><path d="M364.34 275.99C364.34 278.64 362.19 280.79 359.53 280.79C356.88 280.79 354.73 278.64 354.73 275.99C354.73 273.34 356.88 271.19 359.53 271.19C362.19 271.19 364.34 273.34 364.34 275.99Z" id="b8jF3mJhv"></path><path d="M364.34 166.21C364.34 168.86 362.19 171.01 359.53 171.01C356.88 171.01 354.73 168.86 354.73 166.21C354.73 163.56 356.88 161.41 359.53 161.41C362.19 161.41 364.34 163.56 364.34 166.21Z" id="a2bgdGuwNc"></path><path d="M316.55 268.97C316.55 271.62 314.4 273.77 311.74 273.77C309.09 273.77 306.94 271.62 306.94 268.97C306.94 266.32 309.09 264.17 311.74 264.17C314.4 264.17 316.55 266.32 316.55 268.97Z" id="j2UzmDc50S"></path><path d="M204.8 282.67L249.87 282.67L249.87 302.76L204.8 302.76L204.8 282.67Z" id="ghy9Z49Wu"></path><path d="M212.94 272.47C212.94 275.12 210.79 277.28 208.14 277.28C205.49 277.28 203.34 275.12 203.34 272.47C203.34 269.82 205.49 267.67 208.14 267.67C210.79 267.67 212.94 269.82 212.94 272.47Z" id="a1ANr6HlZ"></path><path d="M168.32 155.31L218.11 155.31L218.11 160.86L168.32 160.86L168.32 155.31Z" id="aUvTkqF8q"></path><path d="M298.82 405.11L347.96 397.12L348.85 402.61L299.71 410.59L298.82 405.11Z" id="b4VmzLyamC"></path><path d="M170.91 386.76L179.79 435.74L174.32 436.73L165.45 387.75L170.91 386.76Z" id="d1P0pe89f4"></path><path d="M250.9 356.44C250.9 369.45 240.34 380 227.34 380C214.33 380 203.77 369.45 203.77 356.44C203.77 343.43 214.33 332.88 227.34 332.88C240.34 332.88 250.9 343.43 250.9 356.44Z" id="eGZqk2VA2"></path><path d="M228.57 269.89C228.81 275.66 224.31 280.54 218.54 280.78C212.76 281.02 207.88 276.52 207.64 270.74C207.41 264.97 211.9 260.09 217.68 259.85C223.46 259.61 228.34 264.11 228.57 269.89Z" id="c2fzKRJEb"></path><path d="M248.48 309.23C248.48 311.88 246.32 314.04 243.67 314.04C241.02 314.04 238.87 311.88 238.87 309.23C238.87 306.58 241.02 304.43 243.67 304.43C246.32 304.43 248.48 306.58 248.48 309.23Z" id="c1ZjOeYNw8"></path><path d="M219.83 160.86L330.53 160.86L330.53 185.48L219.83 185.48L219.83 160.86Z" id="aO46y7JH"></path><path d="M333.13 161.41L367.47 161.41L367.47 282.67L333.13 282.67L333.13 161.41Z" id="dd90GicmF"></path></defs><g id="floorplan"><g><g><g><use xlink:href="#c51LPOr5Qz" opacity="1" fill-opacity="0" stroke="#000000" stroke-width="1" stroke-opacity="1"></use></g></g><g><use xlink:href="#gwI1YXJNu" opacity="1" fill="#0c544a" fill-opacity="1"></use></g><g><use xlink:href="#b5XcHM3jd0" opacity="1" fill="#0c544a" fill-opacity="1"></use></g><g><g><use xlink:href="#i3U7H0rM2i" opacity="1" fill-opacity="0" stroke="#000000" stroke-width="1" stroke-opacity="1"></use></g></g><g><g><use xlink:href="#b2BEHugZG5" opacity="1" fill-opacity="0" stroke="#000000" stroke-width="1" stroke-opacity="1"></use></g></g><g><use xlink:href="#e3f3vyd1Oo" opacity="1" fill="#0c544a" fill-opacity="1"></use></g><g><use xlink:href="#ak2rCjNx4" opacity="1" fill="#0c544a" fill-opacity="1"></use></g><g><use xlink:href="#a2kThFNuR" opacity="1" fill="#0c544a" fill-opacity="1"></use></g><g><g><use xlink:href="#dhXxpLnpc" opacity="1" fill-opacity="0" stroke="#000000" stroke-width="1" stroke-opacity="1"></use></g></g><g><g><use xlink:href="#d1iz9EHTz2" opacity="1" fill-opacity="0" stroke="#000000" stroke-width="1" stroke-opacity="1"></use></g></g><g><use xlink:href="#a5lMkKNVx" opacity="1" fill="#000000" fill-opacity="0"></use><g><use xlink:href="#a5lMkKNVx" opacity="1" fill-opacity="0" stroke="#000000" stroke-width="1" stroke-opacity="1"></use></g></g><g><use xlink:href="#c4PrwEZJ99" opacity="1" fill="#000000" fill-opacity="0"></use><g><use xlink:href="#c4PrwEZJ99" opacity="1" fill-opacity="0" stroke="#000000" stroke-width="1" stroke-opacity="1"></use></g></g><g><use xlink:href="#a4XB4ZSao6" opacity="1" fill="#000000" fill-opacity="0"></use><g><use xlink:href="#a4XB4ZSao6" opacity="1" fill-opacity="0" stroke="#000000" stroke-width="1" stroke-opacity="1"></use></g></g><g><use xlink:href="#eoEJNfEVf" opacity="1" fill="#000000" fill-opacity="0"></use><g><use xlink:href="#eoEJNfEVf" opacity="1" fill-opacity="0" stroke="#000000" stroke-width="1" stroke-opacity="1"></use></g></g><g><use xlink:href="#e22ceeCA4R" opacity="1" fill="#000000" fill-opacity="0"></use><g><use xlink:href="#e22ceeCA4R" opacity="1" fill-opacity="0" stroke="#000000" stroke-width="1" stroke-opacity="1"></use></g></g><g><use xlink:href="#b8jF3mJhv" opacity="1" fill="#000000" fill-opacity="0"></use><g><use xlink:href="#b8jF3mJhv" opacity="1" fill-opacity="0" stroke="#000000" stroke-width="1" stroke-opacity="1"></use></g></g><g><use xlink:href="#a2bgdGuwNc" opacity="1" fill="#000000" fill-opacity="0"></use><g><use xlink:href="#a2bgdGuwNc" opacity="1" fill-opacity="0" stroke="#000000" stroke-width="1" stroke-opacity="1"></use></g></g><g><use xlink:href="#j2UzmDc50S" opacity="1" fill="#000000" fill-opacity="0"></use><g><use xlink:href="#j2UzmDc50S" opacity="1" fill-opacity="0" stroke="#000000" stroke-width="1" stroke-opacity="1"></use></g></g><g><use xlink:href="#ghy9Z49Wu" opacity="1" fill="#221f6f" fill-opacity="0"></use><g><use xlink:href="#ghy9Z49Wu" opacity="1" fill-opacity="0" stroke="#140417" stroke-width="1" stroke-opacity="1"></use></g></g><g><use xlink:href="#a1ANr6HlZ" opacity="1" fill="#000000" fill-opacity="0"></use><g><use xlink:href="#a1ANr6HlZ" opacity="1" fill-opacity="0" stroke="#000000" stroke-width="1" stroke-opacity="1"></use></g></g><g><use xlink:href="#aUvTkqF8q" opacity="1" fill="#211f6f" fill-opacity="0"></use><g><use xlink:href="#aUvTkqF8q" opacity="1" fill-opacity="0" stroke="#140417" stroke-width="2" stroke-opacity="1"></use></g></g><g><use xlink:href="#b4VmzLyamC" opacity="1" fill="#211f6f" fill-opacity="0"></use><g><use xlink:href="#b4VmzLyamC" opacity="1" fill-opacity="0" stroke="#140417" stroke-width="2" stroke-opacity="1"></use></g></g><g><use xlink:href="#d1P0pe89f4" opacity="1" fill="#211f6f" fill-opacity="0"></use><g><use xlink:href="#d1P0pe89f4" opacity="1" fill-opacity="0" stroke="#140417" stroke-width="2" stroke-opacity="1"></use></g></g><g><use xlink:href="#eGZqk2VA2" opacity="1" fill="#211f6f" fill-opacity="0"></use><g><use xlink:href="#eGZqk2VA2" opacity="1" fill-opacity="0" stroke="#140417" stroke-width="1" stroke-opacity="1"></use></g></g><g><use xlink:href="#c2fzKRJEb" opacity="1" fill="#211f6f" fill-opacity="0"></use><g><use xlink:href="#c2fzKRJEb" opacity="1" fill-opacity="0" stroke="#140417" stroke-width="1" stroke-opacity="1"></use></g></g><g><use xlink:href="#c1ZjOeYNw8" opacity="1" fill="#000000" fill-opacity="0"></use><g><use xlink:href="#c1ZjOeYNw8" opacity="1" fill-opacity="0" stroke="#000000" stroke-width="1" stroke-opacity="1"></use></g></g><g><use xlink:href="#aO46y7JH" opacity="1" fill="#211f6f" fill-opacity="0"></use><g><use xlink:href="#aO46y7JH" opacity="1" fill-opacity="0" stroke="#140417" stroke-width="1" stroke-opacity="1"></use></g></g><g><use xlink:href="#dd90GicmF" opacity="1" fill="#211f6f" fill-opacity="0"></use><g><use xlink:href="#dd90GicmF" opacity="1" fill-opacity="0" stroke="#140417" stroke-width="1" stroke-opacity="1"></use></g></g></g></g></svg>